<?xml version="1.0" encoding="UTF-8"?>
<!DOCTYPE svg PUBLIC "-//W3C//DTD SVG 1.1//EN" "http://www.w3.org/Graphics/SVG/1.1/DTD/svg11.dtd">
<svg xmlns="http://www.w3.org/2000/svg" version="1.1" width="1080px" height="1080px" style="shape-rendering:geometricPrecision; text-rendering:geometricPrecision; image-rendering:optimizeQuality; fill-rule:evenodd; clip-rule:evenodd" xmlns:xlink="http://www.w3.org/1999/xlink">
<g><path style="opacity:0.994" fill="#42e0cd" d="M 355.5,157.5 C 507.501,157.167 659.501,157.5 811.5,158.5C 700.205,325.592 588.539,492.425 476.5,659C 324.499,659.833 172.499,659.667 20.5,658.5C 132.425,491.644 244.091,324.644 355.5,157.5 Z"/></g>
<g><path style="opacity:0.994" fill="#a04fd6" d="M 705.5,397.5 C 823.169,397.167 940.835,397.5 1058.5,398.5C 947.205,565.592 835.539,732.425 723.5,899C 564.167,899.667 404.833,899.667 245.5,899C 288.585,834.161 331.919,769.494 375.5,705C 417.404,704.83 459.238,704.33 501,703.5C 568.996,601.346 637.163,499.346 705.5,397.5 Z"/></g>
</svg>
